<?xml version="1.0" encoding="UTF-8" standalone="no"?>
<!-- Created with Inkscape (http://www.inkscape.org/) -->

<svg
   xmlns:dc="http://purl.org/dc/elements/1.1/"
   xmlns:cc="http://creativecommons.org/ns#"
   xmlns:rdf="http://www.w3.org/1999/02/22-rdf-syntax-ns#"
   xmlns:svg="http://www.w3.org/2000/svg"
   xmlns="http://www.w3.org/2000/svg"
   xmlns:sodipodi="http://sodipodi.sourceforge.net/DTD/sodipodi-0.dtd"
   xmlns:inkscape="http://www.inkscape.org/namespaces/inkscape"
   width="744.09448"
   height="744.08698"
   viewBox="0 0 744.09449 744.08699"
   id="svg2"
   version="1.1"
   inkscape:version="0.91 r13725"
   sodipodi:docname="documenta.svg">
  <defs
     id="defs4" />
  <sodipodi:namedview
     id="base"
     pagecolor="#ffffff"
     bordercolor="#666666"
     borderopacity="1.0"
     inkscape:pageopacity="0.0"
     inkscape:pageshadow="2"
     inkscape:zoom="0.48385781"
     inkscape:cx="256.51818"
     inkscape:cy="390.81806"
     inkscape:document-units="px"
     inkscape:current-layer="layer1"
     showgrid="false"
     inkscape:snap-page="true"
     units="px"
     inkscape:window-width="1366"
     inkscape:window-height="715"
     inkscape:window-x="0"
     inkscape:window-y="0"
     inkscape:window-maximized="1" />
  <metadata
     id="metadata7">
    <rdf:RDF>
      <cc:Work
         rdf:about="">
        <dc:format>image/svg+xml</dc:format>
        <dc:type
           rdf:resource="http://purl.org/dc/dcmitype/StillImage" />
        <dc:title></dc:title>
      </cc:Work>
    </rdf:RDF>
  </metadata>
  <g
     inkscape:label="Layer 1"
     inkscape:groupmode="layer"
     id="layer1"
     transform="translate(0,-308.27516)">
    <path
       style="fill:#0479c8;fill-opacity:1"
       d="m 0,308.27516 0,95.88847 530.26322,0 0,-95.88847 -530.26322,0 z m 565.74194,0 0,525.46879 178.35255,0 0,-525.46879 -178.35255,0 z M 530.26322,450.19009 0,450.19776 l 0,99.72401 530.26322,-0.008 0,-99.724 z M 0,595.94056 l 0,95.88846 530.26322,0 0,-95.88846 -530.26322,0 z m 0,141.91493 0,95.88846 530.26322,0 0,-95.88846 -530.26322,0 z m 0,138.07939 0,176.42722 530.26322,0 0,-176.42722 -530.26322,0 z m 565.74194,0 0,176.42722 178.35255,0 0,-176.42722 -178.35255,0 z"
       id="path3401"
       inkscape:connector-curvature="0" />
  </g>
</svg>
